<svg width="136" height="112" viewBox="0 0 136 112" fill="none" xmlns="http://www.w3.org/2000/svg">
<g clip-path="url(#clip0_19_8290)">
<g filter="url(#filter0_d_19_8290)">
<path d="M25.4714 59.8712C25.0735 57.6069 24.8684 55.3128 24.8582 53.0138C24.8582 47.5396 25.9364 42.1189 28.0313 37.0614C30.1263 32.0038 33.1968 27.4084 37.0677 23.5375C40.9385 19.6666 45.534 16.5961 50.5915 14.5012C55.6491 12.4063 61.0697 11.328 66.544 11.328C72.0183 11.328 77.4388 12.4063 82.4966 14.5012C87.5537 16.5961 92.1493 19.6666 96.0201 23.5375C99.8909 27.4084 102.962 32.0038 105.056 37.0614C107.151 42.1189 108.23 47.5396 108.23 53.0138C108.21 55.3124 108.005 57.6056 107.617 59.8712H25.4714ZM96.729 91.0842C96.5377 92.8891 95.7135 93.9046 94.2175 94.1892C93.7052 94.2735 93.1861 94.3068 92.6677 94.2871C92.2062 94.2871 91.7114 94.2871 91.1915 94.2674C90.8879 94.2477 90.5387 94.2477 90.2351 94.2477C90.289 93.8962 90.3733 93.5501 90.4856 93.2124C91.5011 92.5991 92.4969 91.9662 93.4532 91.2945C94.5158 90.8801 95.6322 90.622 96.7692 90.5294C96.7753 90.7154 96.7624 90.9006 96.7297 91.0835L96.729 91.0842ZM66.5322 94.6886C56.7273 94.6886 47.2384 91.2201 39.744 84.8978H93.3401C85.8414 91.2262 76.3443 94.6947 66.5322 94.6886ZM82.7789 98.8827C82.0336 100.32 81.0181 101.008 79.6937 101.008H79.3711C78.6432 100.843 77.9321 100.612 77.246 100.316C76.7504 100.125 76.1568 99.9142 75.5633 99.7229C75.7546 99.3988 75.9428 99.0899 76.1174 98.86C77.3393 98.6103 78.5476 98.2976 79.7377 97.9234C80.8337 97.953 81.9243 98.0881 82.9945 98.3256C82.9186 98.4972 82.8624 98.6884 82.7835 98.8797L82.7789 98.8827ZM67.0149 101.606C66.3509 102.347 65.4339 102.812 64.4443 102.911C63.9738 102.905 63.5128 102.778 63.1054 102.543C62.4625 102.147 61.8533 101.699 61.2839 101.204C60.8619 100.861 60.3815 100.473 59.8813 100.09C60.1902 99.8626 60.4748 99.6144 60.7253 99.4573C61.932 99.6144 63.1388 99.685 64.3843 99.7465C65.4284 100.137 66.4362 100.617 67.3959 101.184C67.2767 101.331 67.15 101.472 67.0164 101.606H67.0149ZM51.2062 99.134C50.5933 99.4717 49.9129 99.6675 49.2146 99.7077C48.457 99.6356 47.7496 99.2964 47.2185 98.7514C46.58 97.9666 46.0046 97.1318 45.4979 96.2559C45.3461 95.9865 45.1548 95.6821 44.9582 95.3922C45.3263 95.2594 45.6694 95.1076 45.9737 95.0294C47.0674 95.5607 48.1809 96.0844 49.3095 96.5253C50.2025 97.1948 51.0027 97.9796 51.6889 98.86C51.5348 98.9602 51.3743 99.0505 51.2084 99.1294L51.2062 99.134ZM37.0428 91.7172C36.8318 91.7369 36.6208 91.7369 36.4098 91.7369C35.7948 91.7772 35.1814 91.636 34.6466 91.3294C34.1117 91.0235 33.679 90.5658 33.4028 90.0148C33.1345 89.3135 32.9358 88.5872 32.8092 87.8464C32.6916 87.3151 32.5398 86.6988 32.3873 86.1053C32.7321 86.0856 33.0777 86.0856 33.4225 86.1053C34.2862 86.9683 35.2031 87.7925 36.1252 88.5773C36.7354 89.5222 37.242 90.5309 37.6364 91.5844C37.4254 91.6239 37.2341 91.6777 37.0428 91.7172ZM22.0576 34.4074C21.9782 34.2587 21.9094 34.1045 21.8519 33.946C21.1802 32.1654 21.3904 30.9586 22.5782 30.0168C23.1295 29.6087 23.7193 29.2554 24.339 28.9618C24.6282 28.81 24.9128 28.6582 25.2217 28.5064L25.5458 28.3295C25.7227 28.2362 25.9139 28.1185 26.1052 28.026C26.1985 28.4054 26.2964 28.7523 26.3503 29.0612C25.7227 30.0964 25.1436 31.1507 24.6092 32.2398C23.8486 33.0619 22.9922 33.7899 22.0583 34.4082L22.0576 34.4074ZM32.4662 16.9691C33.2086 16.7213 33.9807 16.5727 34.7621 16.5274C35.2623 16.4515 35.8171 16.3756 36.3711 16.277C36.3708 16.6118 36.3454 16.9462 36.2952 17.2773C35.3533 18.0818 34.4168 18.9061 33.5333 19.7819C32.5728 20.3113 31.5492 20.7168 30.4868 20.9887C30.335 19.3994 30.4868 17.7904 32.4601 16.9661L32.4662 16.9691ZM42.9773 10.53C43.5708 8.72511 44.4953 7.88114 46.0428 7.84699C46.771 7.90018 47.4941 8.00853 48.2059 8.17106C48.7258 8.26896 49.3391 8.38205 49.9326 8.47996C49.8206 8.78871 49.6862 9.08881 49.5303 9.37783C48.4017 9.81956 47.308 10.3197 46.2143 10.8351C45.1066 11.0084 43.9839 11.066 42.8642 11.0066C42.8924 10.8459 42.9302 10.687 42.9773 10.5307V10.53ZM58.0817 5.16703C58.3482 4.67778 58.7377 4.26645 59.2116 3.97364C59.6855 3.68082 60.2277 3.51663 60.7845 3.49728C61.1278 3.50734 61.4687 3.5583 61.8 3.64907C62.539 3.9093 63.2413 4.26389 63.8895 4.70405C64.3114 4.95452 64.8071 5.23534 65.3072 5.50857C65.0966 5.76453 64.8723 6.00902 64.6355 6.24099C63.409 6.29487 62.1635 6.37305 60.9568 6.50587C59.87 6.34172 58.8085 6.04 57.7979 5.608C57.8846 5.45567 57.9797 5.30821 58.0825 5.16627L58.0817 5.16703ZM74.0643 4.99474C75.5018 4.01338 76.8065 3.92079 78.0672 4.76705C78.6607 5.24516 79.1958 5.79188 79.661 6.39582C79.9851 6.79808 80.3676 7.2398 80.7699 7.66104C80.4974 7.82834 80.2151 7.98037 79.9259 8.11641C78.7191 7.75363 77.4926 7.43334 76.2471 7.17984C75.3119 6.6675 74.4379 6.05026 73.6423 5.34008C73.7941 5.22244 73.9118 5.11239 74.0643 4.99702V4.99474ZM89.2439 10.0738C91.1224 9.57365 92.2707 9.90229 93.1147 11.1091C93.4919 11.7633 93.8122 12.449 94.071 13.1583C94.2623 13.6539 94.5127 14.2133 94.7625 14.7673C94.4277 14.8386 94.0885 14.8893 93.7469 14.9191C92.7709 14.2277 91.7554 13.5803 90.7353 12.9458C89.9839 12.1127 89.3168 11.2074 88.7437 10.2431C88.9077 10.1772 89.0747 10.1199 89.2439 10.0715V10.0738ZM105.28 22.0634C105.468 22.8155 105.559 23.5887 105.549 24.3639C105.569 24.8595 105.608 25.4189 105.647 25.9729C105.259 25.9137 104.916 25.875 104.612 25.8014C103.92 24.8253 103.209 23.8637 102.443 22.9461C101.958 21.9372 101.617 20.8656 101.428 19.7622C102.963 19.728 104.626 19.9534 105.279 22.0627L105.28 22.0634ZM20.1244 47.0149C19.6435 48.0225 19.0722 48.9846 18.4175 49.8891C17.3625 48.7438 16.4844 47.3579 17.4414 45.5561C17.8706 44.995 18.3377 44.464 18.8395 43.9668C19.2615 43.5251 19.7222 43.0446 20.1639 42.549C20.3634 42.8018 20.5411 43.0709 20.6952 43.3535C20.4447 44.5603 20.2732 45.7868 20.1214 47.0126L20.1244 47.0149ZM20.1973 64.9465H18.8782C18.3886 64.6069 18.0132 64.1272 17.8013 63.5703C17.5894 63.0135 17.551 62.4054 17.6911 61.8263C17.8901 61.0598 18.1922 60.3236 18.589 59.6382C18.8167 59.1623 19.0505 58.6621 19.2804 58.1468C19.5893 58.3745 19.874 58.5832 20.085 58.7745C20.2368 60.0397 20.4136 61.3057 20.6785 62.5322C20.6082 63.3517 20.4487 64.161 20.2026 64.9457L20.1973 64.9465ZM110.339 32.8918C111.811 33.3919 113.248 34.1965 113.267 36.2669C113.173 36.9575 113.014 37.6374 112.791 38.298C112.715 38.6016 112.614 38.931 112.502 39.3332C112.443 39.5981 112.389 39.8873 112.331 40.1575C112.002 40.0004 111.678 39.8288 111.428 39.677C111.085 38.5097 110.683 37.3963 110.261 36.2874C110.181 35.1562 110.206 34.0199 110.337 32.8933L110.339 32.8918ZM113.437 64.0327C113.643 64.3263 113.83 64.6327 113.996 64.9503H112.598C112.863 64.6467 113.153 64.337 113.437 64.0327ZM113.307 51.2484C113.58 50.2019 113.978 49.1921 114.494 48.2414C114.631 48.3393 114.763 48.4326 114.916 48.5503C116.333 49.7373 116.716 50.9441 116.142 52.3619C115.856 52.9797 115.502 53.5636 115.087 54.103C114.916 54.3724 114.724 54.6623 114.556 54.9272C114.365 55.1967 114.193 55.4668 114.025 55.7317C113.764 55.4934 113.52 55.2378 113.294 54.9667C113.333 54.314 113.411 53.662 113.411 53.0146C113.411 52.4211 113.335 51.842 113.313 51.2484H113.307ZM130.58 84.8993L120.052 75.1221L129.823 64.9518H114.842C114.616 64.4342 114.34 63.9398 114.018 63.4756C114.707 62.8907 115.313 62.2139 115.818 61.4643C117.118 59.242 115.818 57.5935 114.572 56.3139C114.783 56.005 114.974 55.7006 115.205 55.372C115.376 55.0874 115.568 54.8179 115.736 54.5477C116.174 53.9531 116.554 53.3177 116.869 52.6503C117.576 50.9479 117.097 49.3586 115.412 47.9757C115.221 47.8042 115.033 47.6721 114.838 47.5203C115.257 46.7207 115.609 45.8872 115.888 45.0286C116.368 43.0173 115.221 41.8105 113.915 41.0212C113.625 40.8497 113.341 40.6971 113.032 40.5453C113.13 40.1969 113.189 39.8342 113.282 39.4714C113.38 39.1473 113.454 38.8186 113.552 38.5348C113.792 37.8048 113.964 37.0543 114.067 36.2928C114.028 33.6295 112.094 32.6497 110.408 32.1131C110.571 31.2214 110.655 30.3169 110.659 29.4103C110.256 26.8844 108.205 26.3638 106.425 26.0944C106.385 25.5008 106.349 24.8876 106.327 24.3533C106.343 23.493 106.241 22.6347 106.023 21.8023C105.239 19.2977 103.129 19.0062 101.594 19.0062H101.27C101.161 18.11 100.929 17.2333 100.579 16.4014C99.4499 14.0615 97.302 14.2763 95.5404 14.6209C95.271 14.0228 95.0205 13.4065 94.7951 12.8752C94.5173 12.1117 94.1712 11.3749 93.7598 10.6742C93.4289 10.1719 92.9758 9.76226 92.443 9.48409C91.9094 9.206 91.3144 9.06855 90.7133 9.08487C90.1479 9.08988 89.5862 9.1723 89.0435 9.33002C88.7931 9.38922 88.5821 9.50686 88.3324 9.58048C87.9172 8.77801 87.4246 8.01777 86.8622 7.31039C85.4445 5.81899 83.7618 6.20152 82.4374 6.7791C82.0943 6.9309 81.8044 7.10319 81.4811 7.27472C81.0591 6.81933 80.6371 6.33814 80.2546 5.89641C79.7521 5.22997 79.1654 4.63147 78.5089 4.11585C76.9788 3.12007 75.3698 3.17927 73.6234 4.36631C73.4234 4.51418 73.2319 4.67305 73.0496 4.84219C72.4028 4.2176 71.6902 3.66488 70.9244 3.19369C69.0847 2.35501 67.6327 3.10033 66.5588 4.09611C66.2995 4.35657 66.0554 4.63178 65.8279 4.92036C65.3125 4.63119 64.7926 4.32684 64.2978 4.03767C63.582 3.54831 62.8009 3.16201 61.9776 2.89009C61.1246 2.61911 60.204 2.65388 59.3739 2.98842C58.5439 3.32296 57.8564 3.93634 57.4298 4.72303C57.2977 4.93403 57.1846 5.12529 57.0503 5.31655C56.2439 4.92282 55.3855 4.64629 54.5009 4.49534C53.7019 4.37668 52.8864 4.53666 52.1915 4.9484C51.4965 5.36015 50.9645 5.99855 50.6847 6.75633C50.5132 7.09939 50.4001 7.42803 50.2627 7.73238C49.6153 7.63903 48.9626 7.52139 48.3691 7.4083C47.6071 7.22613 46.8308 7.10959 46.0489 7.05993H45.9358C43.2528 7.15783 42.5022 9.51293 42.2373 10.2825C42.1614 10.533 42.1196 10.7584 42.0658 10.9891C41.1789 10.9255 40.2884 10.9321 39.4025 11.0089C37.3715 11.3717 36.7734 13.0004 36.5472 14.4182C36.4804 14.7727 36.441 15.1317 36.4296 15.4922C35.8361 15.5901 35.2425 15.6834 34.6687 15.7426C33.8037 15.7803 32.9502 15.9548 32.1398 16.2595C29.6678 17.2947 29.5547 19.4624 29.7263 21.224C28.8584 21.4009 28.0191 21.6969 27.2323 22.1036C25.0312 23.4425 25.3925 25.5327 25.8737 27.2594C25.646 27.3922 25.4122 27.5045 25.1823 27.6389L24.8392 27.8104C24.55 27.9622 24.2654 28.1345 23.9755 28.2719C23.3062 28.5947 22.6647 28.9721 22.0576 29.4005C19.9324 31.1074 20.831 33.4618 21.121 34.2321C21.1969 34.4598 21.3122 34.6488 21.4101 34.8795C20.6773 35.3729 19.9852 35.9241 19.3404 36.528C17.9226 38.0634 18.4577 39.712 19.1689 40.9916C19.3601 41.3005 19.5484 41.5707 19.7427 41.8553C19.2425 42.4147 18.7469 42.949 18.2854 43.4105C17.7337 43.9543 17.2207 44.5362 16.75 45.1516C15.5432 47.5112 16.7697 49.2721 17.9765 50.557C17.4455 51.2585 16.9605 51.9938 16.5246 52.758C15.7003 55.1716 17.2312 56.6091 18.6292 57.6831C18.4015 58.2144 18.1336 58.7722 17.8839 59.2921C17.4417 60.042 17.1191 60.8564 16.9276 61.7057C16.7908 62.2703 16.7926 62.8595 16.9327 63.4232C17.0728 63.987 17.347 64.5086 17.7321 64.9435H5.73191L15.5083 75.1138L4.98659 84.8985H27.6937C28.4661 85.6575 29.505 86.0833 30.5877 86.0856C30.9193 86.1053 31.2518 86.1053 31.5835 86.0856C31.7748 86.7573 31.9076 87.4244 32.045 88.0179C32.1763 88.8278 32.4002 89.6194 32.7121 90.3776C33.5758 92.0064 35.1302 92.6978 37.1218 92.4868C37.4064 92.4473 37.6531 92.3889 37.9263 92.3297C38.1999 93.1661 38.5531 93.9744 38.9813 94.7433C39.4629 95.3854 40.1375 95.8567 40.9063 96.0882C41.675 96.3189 42.4975 96.2984 43.2536 96.0282C43.5776 95.9151 43.9063 95.7777 44.2099 95.6654C44.4209 96.0085 44.6516 96.3568 44.8231 96.6415C45.3504 97.5796 45.9665 98.4653 46.6629 99.2857C47.3293 99.9832 48.2319 100.406 49.1941 100.473C50.0165 100.449 50.8221 100.234 51.5469 99.8451C51.7746 99.7275 51.9689 99.5947 52.1997 99.477C52.7491 100.175 53.3652 100.817 54.0394 101.395C54.7159 101.918 55.5601 102.177 56.4135 102.121C57.1645 101.978 57.8726 101.664 58.4832 101.204C58.7577 101.016 59.0198 100.811 59.268 100.59C59.8077 101.012 60.323 101.434 60.8034 101.817C61.4116 102.351 62.0647 102.832 62.7555 103.254C63.2745 103.535 63.8531 103.686 64.4427 103.696C65.6328 103.602 66.7428 103.059 67.5477 102.178C67.7355 101.99 67.9129 101.792 68.079 101.585C68.8241 102.08 69.6141 102.503 70.4387 102.85C72.3908 103.533 73.6765 102.35 74.5789 101.201C74.7846 100.932 74.9417 100.67 75.133 100.397C75.766 100.608 76.4134 100.839 76.9727 101.05C77.7203 101.381 78.5036 101.625 79.3074 101.776C81.1471 101.908 82.53 101.069 83.4871 99.2303C83.6001 98.9799 83.6783 98.7302 83.7717 98.4797C84.6399 98.7059 85.5264 98.8531 86.4205 98.9214C88.4318 98.7696 89.3487 97.4255 89.8298 96.0472C89.9232 95.6844 89.9816 95.3558 90.0575 95.0119C90.4203 95.0317 90.8028 95.0317 91.1664 95.0514C91.7258 95.0711 92.2214 95.0711 92.6844 95.0711C93.2551 95.084 93.8259 95.0514 94.3913 94.9732C96.2455 94.6104 97.3005 93.3247 97.5304 91.1783C97.5502 90.9279 97.5502 90.6782 97.5699 90.433C98.4655 90.3533 99.3512 90.1856 100.214 89.9328C102.152 89.2414 102.554 87.6324 102.495 86.1213C102.475 85.7729 102.436 85.4685 102.419 85.1399C102.63 85.064 102.861 84.9684 103.072 84.8947L130.58 84.8993Z" fill="#D6A763"/>
</g>
<path d="M89.7833 34.1477C93.0257 37.5199 92.9377 38.924 92.9809 40.4708C93.1327 45.8148 85.8572 41.969 83.9491 40.4708C72.106 31.1528 71.1891 31.5528 66.9168 33.3038L66.7651 33.3797L66.6133 33.3038C62.3448 31.5536 61.4242 31.1536 49.5811 40.4746C47.6775 41.9728 40.3974 45.8186 40.5492 40.4746C40.5947 38.924 40.5135 37.5199 43.7513 34.1477C43.7513 34.1477 34.453 34.569 37.4631 46.381C38.9181 52.0877 43.0849 62.3954 66.7651 48.4074C90.4452 62.3992 94.6089 52.0877 96.0616 46.381C99.0816 34.5667 89.7833 34.1477 89.7833 34.1477Z" fill="#D6A763"/>
<path d="M23.5966 74.2194C23.9812 74.2801 24.3303 74.4369 24.644 74.6899C24.9679 74.9429 25.2209 75.2566 25.403 75.6311C25.5953 76.0055 25.6914 76.4052 25.6914 76.8303C25.6914 77.3666 25.5548 77.8523 25.2816 78.2875C25.0083 78.7125 24.6086 79.0515 24.0824 79.3045C23.5663 79.5474 22.954 79.6688 22.2457 79.6688H18.299V69.0887H22.0939C22.8124 69.0887 23.4246 69.2101 23.9306 69.453C24.4366 69.6857 24.8161 70.0045 25.0691 70.4093C25.3221 70.8141 25.4486 71.2695 25.4486 71.7755C25.4486 72.4029 25.2765 72.924 24.9324 73.339C24.5985 73.7437 24.1532 74.0372 23.5966 74.2194ZM19.6803 73.6577H22.0028C22.6505 73.6577 23.1514 73.5059 23.5056 73.2023C23.8598 72.8987 24.0369 72.4788 24.0369 71.9424C24.0369 71.4061 23.8598 70.9861 23.5056 70.6825C23.1514 70.3789 22.6403 70.2271 21.9724 70.2271H19.6803V73.6577ZM22.1242 78.5304C22.8124 78.5304 23.3487 78.3685 23.7333 78.0446C24.1178 77.7208 24.3101 77.2705 24.3101 76.6936C24.3101 76.1067 24.1077 75.6462 23.7029 75.3123C23.2981 74.9682 22.7567 74.7962 22.0787 74.7962H19.6803V78.5304H22.1242ZM33.8623 77.316H29.2477L28.3977 79.6688H26.9404L30.7657 69.1494H32.3595L36.1696 79.6688H34.7124L33.8623 77.316ZM33.4676 76.1927L31.555 70.8495L29.6424 76.1927H33.4676ZM43.4077 79.6688L40.8879 75.3427H39.2181V79.6688H37.8368V69.0887H41.2522C42.0516 69.0887 42.7246 69.2253 43.271 69.4985C43.8276 69.7717 44.2425 70.1411 44.5158 70.6066C44.789 71.0721 44.9256 71.6034 44.9256 72.2005C44.9256 72.9291 44.7131 73.5717 44.2881 74.1283C43.8732 74.6849 43.2457 75.0542 42.4058 75.2364L45.0622 79.6688H43.4077ZM39.2181 74.2345H41.2522C42.001 74.2345 42.5627 74.0524 42.9371 73.6881C43.3115 73.3137 43.4987 72.8178 43.4987 72.2005C43.4987 71.5731 43.3115 71.0873 42.9371 70.7432C42.5728 70.3992 42.0111 70.2271 41.2522 70.2271H39.2181V74.2345ZM52.3697 74.2194C52.7542 74.2801 53.1033 74.4369 53.4171 74.6899C53.7409 74.9429 53.9939 75.2566 54.176 75.6311C54.3683 76.0055 54.4644 76.4052 54.4644 76.8303C54.4644 77.3666 54.3278 77.8523 54.0546 78.2875C53.7814 78.7125 53.3816 79.0515 52.8554 79.3045C52.3393 79.5474 51.7271 79.6688 51.0187 79.6688H47.072V69.0887H50.8669C51.5854 69.0887 52.1976 69.2101 52.7036 69.453C53.2096 69.6857 53.5891 70.0045 53.8421 70.4093C54.0951 70.8141 54.2216 71.2695 54.2216 71.7755C54.2216 72.4029 54.0495 72.924 53.7055 73.339C53.3715 73.7437 52.9263 74.0372 52.3697 74.2194ZM48.4533 73.6577H50.7758C51.4235 73.6577 51.9244 73.5059 52.2786 73.2023C52.6328 72.8987 52.8099 72.4788 52.8099 71.9424C52.8099 71.4061 52.6328 70.9861 52.2786 70.6825C51.9244 70.3789 51.4134 70.2271 50.7455 70.2271H48.4533V73.6577ZM50.8972 78.5304C51.5854 78.5304 52.1217 78.3685 52.5063 78.0446C52.8908 77.7208 53.0831 77.2705 53.0831 76.6936C53.0831 76.1067 52.8807 75.6462 52.4759 75.3123C52.0711 74.9682 51.5297 74.7962 50.8517 74.7962H48.4533V78.5304H50.8972ZM57.7627 70.212V73.7488H61.6183V74.8873H57.7627V78.5304H62.0737V79.6688H56.3813V69.0735H62.0737V70.212H57.7627ZM69.7348 79.6688L67.2149 75.3427H65.5452V79.6688H64.1638V69.0887H67.5793C68.3787 69.0887 69.0517 69.2253 69.5981 69.4985C70.1547 69.7717 70.5696 70.1411 70.8429 70.6066C71.1161 71.0721 71.2527 71.6034 71.2527 72.2005C71.2527 72.9291 71.0402 73.5717 70.6152 74.1283C70.2003 74.6849 69.5728 75.0542 68.7329 75.2364L71.3893 79.6688H69.7348ZM65.5452 74.2345H67.5793C68.3281 74.2345 68.8898 74.0524 69.2642 73.6881C69.6386 73.3137 69.8258 72.8178 69.8258 72.2005C69.8258 71.5731 69.6386 71.0873 69.2642 70.7432C68.8999 70.3992 68.3382 70.2271 67.5793 70.2271H65.5452V74.2345ZM85.5974 69.0887V79.6688H84.2161V74.8721H78.8273V79.6688H77.446V69.0887H78.8273V73.7336H84.2161V69.0887H85.5974ZM92.7528 79.7751C91.7712 79.7751 90.8756 79.5474 90.066 79.092C89.2565 78.6265 88.6138 77.9839 88.1382 77.1642C87.6727 76.3344 87.44 75.4034 87.44 74.3712C87.44 73.339 87.6727 72.413 88.1382 71.5933C88.6138 70.7635 89.2565 70.1209 90.066 69.6655C90.8756 69.2 91.7712 68.9672 92.7528 68.9672C93.7445 68.9672 94.6452 69.2 95.4548 69.6655C96.2644 70.1209 96.9019 70.7584 97.3674 71.5781C97.8329 72.3978 98.0657 73.3288 98.0657 74.3712C98.0657 75.4135 97.8329 76.3445 97.3674 77.1642C96.9019 77.9839 96.2644 78.6265 95.4548 79.092C94.6452 79.5474 93.7445 79.7751 92.7528 79.7751ZM92.7528 78.5759C93.4916 78.5759 94.1544 78.4039 94.7413 78.0598C95.3384 77.7157 95.8039 77.2249 96.1379 76.5874C96.4819 75.9498 96.654 75.2111 96.654 74.3712C96.654 73.5211 96.4819 72.7824 96.1379 72.1549C95.8039 71.5174 95.3435 71.0266 94.7565 70.6825C94.1696 70.3385 93.5017 70.1664 92.7528 70.1664C92.004 70.1664 91.3361 70.3385 90.7491 70.6825C90.1622 71.0266 89.6967 71.5174 89.3526 72.1549C89.0186 72.7824 88.8517 73.5211 88.8517 74.3712C88.8517 75.2111 89.0186 75.9498 89.3526 76.5874C89.6967 77.2249 90.1622 77.7157 90.7491 78.0598C91.3462 78.4039 92.0141 78.5759 92.7528 78.5759ZM110.621 69.1646V79.6688H109.24V71.8362L105.749 79.6688H104.777L101.271 71.821V79.6688H99.8892V69.1646H101.377L105.263 77.8473L109.149 69.1646H110.621ZM114.345 70.212V73.7488H118.201V74.8873H114.345V78.5304H118.656V79.6688H112.964V69.0735H118.656V70.212H114.345Z" fill="white"/>
</g>
<defs>
<filter id="filter0_d_19_8290" x="0.432713" y="0.432505" width="134.701" height="110.094" filterUnits="userSpaceOnUse" color-interpolation-filters="sRGB">
<feFlood flood-opacity="0" result="BackgroundImageFix"/>
<feColorMatrix in="SourceAlpha" type="matrix" values="0 0 0 0 0 0 0 0 0 0 0 0 0 0 0 0 0 0 127 0" result="hardAlpha"/>
<feOffset dy="2.27694"/>
<feGaussianBlur stdDeviation="2.27694"/>
<feColorMatrix type="matrix" values="0 0 0 0 0 0 0 0 0 0 0 0 0 0 0 0 0 0 0.412 0"/>
<feBlend mode="normal" in2="BackgroundImageFix" result="effect1_dropShadow_19_8290"/>
<feBlend mode="normal" in="SourceGraphic" in2="effect1_dropShadow_19_8290" result="shape"/>
</filter>
<clipPath id="clip0_19_8290">
<rect width="135.098" height="110.811" fill="white" transform="translate(0.432693 0.432495)"/>
</clipPath>
</defs>
</svg>
